dummy_motion.mot																							
nRows=39																							
nColumns=24																							
name dummy_motion.mot																							
datacolumns 24																							
datarows 39																							
range 37.51 37.89																							
endheader																							
time	lower_torso_RX	lower_torso_RY	lower_torso_RZ	lower_torso_TX	lower_torso_TY	lower_torso_TZ	hip_flex_r	hip_add_r	hip_rot_r	knee_flex_r	ankle_flex_r	hip_flex_l	hip_add_l	hip_rot_l	knee_flex_l	ankle_flex_l	lumbar_pitch	lumbar_roll	lumbar_yaw	subt_angle_r	subt_angle_l	toe_angle_r	toe_angle_l
37.51	0	0	0	0	0	0	73.66196419	31.0572329	-10.14879935	34.89967045	36.41862872	73.66196419	31.0572329	-10.14879935	34.89967045	36.41862872	0	0	0	-25.15827914	-25.15827914	0	0
37.52	0	0	0	0	0	0	38.16946144	34.83052492	11.46154642	65.50171898	15.78360406	38.16946144	34.83052492	11.46154642	65.50171898	15.78360406	0	0	0	-25.04271859	-25.04271859	0	0
37.53	0	0	0	0	0	0	2.784045206	-23.69127113	-6.197500182	11.61808338	25.889159	2.784045206	-23.69127113	-6.197500182	11.61808338	25.889159	0	0	0	16.45439153	16.45439153	0	0
37.54	0	0	0	0	0	0	35.50143539	21.92477161	-6.664978971	106.2659377	-26.81838677	35.50143539	21.92477161	-6.664978971	106.2659377	-26.81838677	0	0	0	13.10423928	13.10423928	0	0
37.55	0	0	0	0	0	0	85.70364443	-13.51089914	30.26462362	106.5233224	-8.995299722	85.70364443	-13.51089914	30.26462362	106.5233224	-8.995299722	0	0	0	-9.986341118	-9.986341118	0	0
37.56	0	0	0	0	0	0	-7.341818858	-2.718099334	-22.72279497	71.42257254	-12.2471189	-7.341818858	-2.718099334	-22.72279497	71.42257254	-12.2471189	0	0	0	-20.82685057	-20.82685057	0	0
37.57	0	0	0	0	0	0	28.8229863	32.88497585	0.008038826	36.60951646	-17.92547118	28.8229863	32.88497585	0.008038826	36.60951646	-17.92547118	0	0	0	-0.757592744	-0.757592744	0	0
37.58	0	0	0	0	0	0	44.09688435	-19.25504175	24.27347849	47.55848714	-13.12818165	44.09688435	-19.25504175	24.27347849	47.55848714	-13.12818165	0	0	0	-30.2816284	-30.2816284	0	0
37.59	0	0	0	0	0	0	66.84786135	-4.276766991	-21.87657325	-4.927747696	-13.22102726	66.84786135	-4.276766991	-21.87657325	-4.927747696	-13.22102726	0	0	0	-13.4734525	-13.4734525	0	0
37.6	0	0	0	0	0	0	57.65823181	5.051912309	1.147787226	-5.165898444	41.10844523	57.65823181	5.051912309	1.147787226	-5.165898444	41.10844523	0	0	0	-31.60406716	-31.60406716	0	0
37.61	0	0	0	0	0	0	47.12258532	22.90202374	3.674940828	40.52137684	-29.76447021	47.12258532	22.90202374	3.674940828	40.52137684	-29.76447021	0	0	0	-7.05247207	-7.05247207	0	0
37.62	0	0	0	0	0	0	89.633544	38.5959747	4.822202969	116.3930057	44.17209903	89.633544	38.5959747	4.822202969	116.3930057	44.17209903	0	0	0	-18.5932322	-18.5932322	0	0
37.63	0	0	0	0	0	0	69.48321435	35.2972686	27.07564988	78.13916451	32.18988587	69.48321435	35.2972686	27.07564988	78.13916451	32.18988587	0	0	0	6.661616332	6.661616332	0	0
37.64	0	0	0	0	0	0	79.10716197	28.56505601	15.19230854	8.235279141	1.52575257	79.10716197	28.56505601	15.19230854	8.235279141	1.52575257	0	0	0	-10.90789302	-10.90789302	0	0
37.65	0	0	0	0	0	0	55.45359697	-23.04015562	23.36036895	31.88181176	-23.77377744	55.45359697	-23.04015562	23.36036895	31.88181176	-23.77377744	0	0	0	16.60145534	16.60145534	0	0
37.66	0	0	0	0	0	0	50.1603491	-36.21354164	-15.32883406	-8.277907111	10.44495313	50.1603491	-36.21354164	-15.32883406	-8.277907111	10.44495313	0	0	0	4.796287968	4.796287968	0	0
37.67	0	0	0	0	0	0	2.917576679	-4.896989355	6.345987808	107.4152062	8.714928269	2.917576679	-4.896989355	6.345987808	107.4152062	8.714928269	0	0	0	-1.082556564	-1.082556564	0	0
37.68	0	0	0	0	0	0	91.23223946	-42.96332837	-7.305212612	101.9342933	-2.089782357	91.23223946	-42.96332837	-7.305212612	101.9342933	-2.089782357	0	0	0	2.90462044	2.90462044	0	0
37.69	0	0	0	0	0	0	94.88170284	18.77663574	20.17444836	94.56090108	30.45105075	94.88170284	18.77663574	20.17444836	94.56090108	30.45105075	0	0	0	-38.8986652	-38.8986652	0	0
37.7	0	0	0	0	0	0	49.07130952	33.64205101	34.96886887	4.043512823	-2.615474414	49.07130952	33.64205101	34.96886887	4.043512823	-2.615474414	0	0	0	10.80817594	10.80817594	0	0
37.71	0	0	0	0	0	0	-9.443758813	-6.775738759	37.33501987	69.79607497	-28.29869206	-9.443758813	-6.775738759	37.33501987	69.79607497	-28.29869206	0	0	0	2.239542434	2.239542434	0	0
37.72	0	0	0	0	0	0	10.80086401	-11.71740408	-35.65638268	39.77420153	-15.0949985	10.80086401	-11.71740408	-35.65638268	39.77420153	-15.0949985	0	0	0	-19.89108312	-19.89108312	0	0
37.73	0	0	0	0	0	0	86.13020161	-46.53670469	9.946217512	-8.985104879	-11.10846792	86.13020161	-46.53670469	9.946217512	-8.985104879	-11.10846792	0	0	0	1.441989497	1.441989497	0	0
37.74	0	0	0	0	0	0	21.80033477	-9.477142441	17.93410642	116.2257302	22.55223038	21.80033477	-9.477142441	17.93410642	116.2257302	22.55223038	0	0	0	10.98979471	10.98979471	0	0
37.75	0	0	0	0	0	0	62.73136765	2.368297997	23.95378995	41.97992154	-25.14594418	62.73136765	2.368297997	23.95378995	41.97992154	-25.14594418	0	0	0	-14.61975507	-14.61975507	0	0
37.76	0	0	0	0	0	0	16.9335346	-11.77561251	-21.87165369	2.140665924	43.74700144	16.9335346	-11.77561251	-21.87165369	2.140665924	43.74700144	0	0	0	-9.109802279	-9.109802279	0	0
37.77	0	0	0	0	0	0	39.64786149	-30.89918122	-34.86917408	87.38070017	15.18644973	39.64786149	-30.89918122	-34.86917408	87.38070017	15.18644973	0	0	0	-30.66785747	-30.66785747	0	0
37.78	0	0	0	0	0	0	49.55087148	-41.33318718	18.06906969	3.035774596	-10.02352848	49.55087148	-41.33318718	18.06906969	3.035774596	-10.02352848	0	0	0	-25.38618014	-25.38618014	0	0
37.79	0	0	0	0	0	0	68.13473946	1.838473336	-32.71897878	39.08667289	15.45848116	68.13473946	1.838473336	-32.71897878	39.08667289	15.45848116	0	0	0	14.80793066	14.80793066	0	0
37.8	0	0	0	0	0	0	28.32565784	-33.68082085	13.97836485	80.19449037	2.524911954	28.32565784	-33.68082085	13.97836485	80.19449037	2.524911954	0	0	0	7.971152215	7.971152215	0	0
37.81	0	0	0	0	0	0	4.835036723	-32.2865938	19.5903267	59.58139599	-27.69669639	4.835036723	-32.2865938	19.5903267	59.58139599	-27.69669639	0	0	0	-25.40015172	-25.40015172	0	0
37.82	0	0	0	0	0	0	35.36842861	-45.07037174	-28.62287935	118.5808443	-21.61721798	35.36842861	-45.07037174	-28.62287935	118.5808443	-21.61721798	0	0	0	-20.20202317	-20.20202317	0	0
37.83	0	0	0	0	0	0	21.5378614	-3.134814378	-19.73291467	60.84915269	38.57811141	21.5378614	-3.134814378	-19.73291467	60.84915269	38.57811141	0	0	0	-2.943743792	-2.943743792	0	0
37.84	0	0	0	0	0	0	-9.423361398	-13.28281406	12.72614107	54.53415197	7.340729064	-9.423361398	-13.28281406	12.72614107	54.53415197	7.340729064	0	0	0	-26.50481261	-26.50481261	0	0
37.85	0	0	0	0	0	0	3.276073282	-8.906871295	-34.47678311	19.18447067	47.99915703	3.276073282	-8.906871295	-34.47678311	19.18447067	47.99915703	0	0	0	-14.19214121	-14.19214121	0	0
37.86	0	0	0	0	0	0	48.31047996	0.391945593	38.60936181	98.04997452	46.61671592	48.31047996	0.391945593	38.60936181	98.04997452	46.61671592	0	0	0	-0.024855514	-0.024855514	0	0
37.87	0	0	0	0	0	0	36.8469044	-10.24231164	25.27346399	-5.603522953	23.6695551	36.8469044	-10.24231164	25.27346399	-5.603522953	23.6695551	0	0	0	-7.592818315	-7.592818315	0	0
37.88	0	0	0	0	0	0	-5.612102022	-47.36036346	9.65704237	39.13303963	4.565728428	-5.612102022	-47.36036346	9.65704237	39.13303963	4.565728428	0	0	0	8.413147424	8.413147424	0	0
37.89	0	0	0	0	0	0	-10.1106827	21.821883	-23.10174976	59.56333636	36.21039721	-10.1106827	21.821883	-23.10174976	59.56333636	36.21039721	0	0	0	-11.56713938	-11.56713938	0	0
